<svg width="400" height="400" xmlns="http://www.w3.org/2000/svg"><path fill="none" d="M-1-1h402v402H-1z"/><g><g stroke="null"><path fill="#fff" d="M75.858 237.658c4.745 0 9.49.329 14.199.95-1.935-.256-3.87-.512-5.84-.767a108.144 108.144 0 0127.01 7.373c-1.751-.73-3.503-1.46-5.219-2.19 8.432 3.577 16.353 8.25 23.617 13.834-1.46-1.132-2.957-2.3-4.417-3.431 7.045 5.512 13.396 11.826 18.908 18.908-1.132-1.46-2.3-2.957-3.431-4.417 5.584 7.264 10.257 15.185 13.834 23.617-.73-1.752-1.46-3.505-2.19-5.22 3.65 8.65 6.095 17.74 7.373 27.011-.255-1.934-.511-3.869-.766-5.84.62 4.709.949 9.454.949 14.199 0 5.621 2.445 11.498 6.424 15.477 3.796 3.796 10.038 6.643 15.477 6.424 5.657-.255 11.534-2.117 15.476-6.424 3.942-4.27 6.425-9.564 6.425-15.477 0-7.556-.913-15.039-2.081-22.522-.876-5.438-2.154-10.84-3.87-16.097-3.905-11.936-9.38-23.616-16.68-33.837-4.125-5.804-8.578-11.461-13.506-16.572-4.928-5.11-10.367-9.49-16.024-13.797-10.075-7.702-21.317-13.323-33.18-17.704-13.47-4.964-28.216-7.263-42.525-7.3-5.621 0-11.534 2.446-15.477 6.424-3.796 3.796-6.643 10.038-6.424 15.477.256 5.658 2.117 11.535 6.424 15.477 4.308 3.942 9.564 6.424 15.514 6.424h0zM72.536 321.649c0 .84-.073 1.679-.183 2.518.256-1.934.511-3.869.767-5.84-.256 1.642-.657 3.176-1.278 4.709.73-1.752 1.46-3.505 2.19-5.22a22.161 22.161 0 01-2.409 4.125c1.132-1.46 2.3-2.957 3.432-4.417a20.874 20.874 0 01-3.359 3.358c1.46-1.132 2.957-2.3 4.417-3.431-1.277.985-2.665 1.752-4.125 2.409 1.752-.73 3.505-1.46 5.22-2.19a19.59 19.59 0 01-4.709 1.277c1.935-.255 3.87-.51 5.84-.766-1.678.219-3.357.219-5.037 0 1.935.255 3.87.51 5.84.766-1.642-.255-3.175-.657-4.708-1.277 1.752.73 3.504 1.46 5.22 2.19a22.161 22.161 0 01-4.125-2.41c1.46 1.132 2.957 2.3 4.417 3.432a20.874 20.874 0 01-3.358-3.358c1.131 1.46 2.3 2.957 3.43 4.417-.985-1.278-1.751-2.665-2.408-4.125.73 1.752 1.46 3.504 2.19 5.22a19.59 19.59 0 01-1.278-4.71c.256 1.935.511 3.87.767 5.841a19.392 19.392 0 010-5.037c-.256 1.935-.511 3.87-.767 5.84.256-1.642.657-3.175 1.278-4.708-.73 1.752-1.46 3.504-2.19 5.22a22.161 22.161 0 012.409-4.125c-1.132 1.46-2.3 2.956-3.431 4.416a20.874 20.874 0 013.358-3.358c-1.46 1.132-2.957 2.3-4.417 3.431 1.278-.985 2.665-1.752 4.125-2.409-1.752.73-3.504 1.46-5.22 2.19a19.59 19.59 0 014.709-1.277c-1.935.255-3.87.51-5.84.766a19.392 19.392 0 015.037 0c-1.935-.255-3.87-.51-5.84-.766 1.642.255 3.175.657 4.708 1.277-1.752-.73-3.504-1.46-5.22-2.19 1.46.657 2.848 1.46 4.125 2.41-1.46-1.132-2.957-2.3-4.417-3.432a20.874 20.874 0 013.359 3.358c-1.132-1.46-2.3-2.956-3.432-4.416.986 1.277 1.752 2.664 2.41 4.124-.73-1.752-1.46-3.504-2.19-5.22a19.59 19.59 0 011.277 4.71c-.256-1.935-.511-3.87-.767-5.841.11.84.183 1.679.183 2.519.073 5.657 2.373 11.461 6.424 15.476 3.796 3.796 10.038 6.644 15.477 6.425 5.658-.256 11.535-2.118 15.477-6.425 3.905-4.234 6.497-9.563 6.424-15.476-.037-2.811-.511-5.585-.949-8.36-.183-1.13-.402-2.262-.767-3.357-1.168-3.541-2.664-7.264-4.854-10.33-2.92-4.089-5.403-6.9-9.272-9.892-3.942-3.03-7.446-4.855-12.264-6.607-3.65-1.35-7.775-1.789-11.608-1.971-1.022-.037-2.044 0-3.03.11-2.81.291-5.73.547-8.504 1.313-2.665.73-5.257 1.971-7.739 3.103-.949.438-1.861.912-2.737 1.496-3.103 2.045-6.279 4.38-8.651 7.228-1.68 2.007-3.432 4.124-4.819 6.388-1.496 2.409-2.482 5.183-3.54 7.774-1.424 3.578-1.789 7.483-2.154 11.28-.11 1.095-.11 2.19-.036 3.285.219 2.847.547 5.73 1.204 8.541.22.95.548 1.862.876 2.774 1.022 2.628 2.044 5.366 3.504 7.812 1.351 2.263 3.103 4.343 4.782 6.387a17.95 17.95 0 002.3 2.41c2.7 2.409 5.694 4.854 9.016 6.387 2.482 1.168 5.073 2.373 7.738 3.14 2.738.802 5.658 1.021 8.468 1.35 3.943.438 7.994-.22 11.864-.95a19.964 19.964 0 003.285-.948c2.7-1.022 5.548-2.08 8.03-3.577 2.41-1.46 4.636-3.285 6.753-5.074.84-.73 1.642-1.497 2.336-2.336 4.161-4.855 6.424-8.834 8.687-14.783.438-1.132.767-2.336.986-3.541.511-2.957 1.022-6.06 1.059-9.089.073-5.585-2.483-11.571-6.425-15.477-3.796-3.796-10.038-6.643-15.477-6.424-5.657.256-11.534 2.117-15.476 6.424-3.942 4.344-6.279 9.564-6.388 15.514z"/><path fill="#fff" d="M75.858 150.382c8.65 0 17.265.584 25.843 1.716-1.935-.255-3.87-.511-5.84-.767 16.936 2.3 33.508 6.79 49.24 13.433-1.752-.73-3.504-1.46-5.22-2.19 15.368 6.497 29.859 15.002 43.073 25.186-1.46-1.131-2.957-2.3-4.417-3.43a197.753 197.753 0 0134.713 34.712c-1.131-1.46-2.3-2.956-3.431-4.416 10.184 13.213 18.689 27.704 25.186 43.072-.73-1.753-1.46-3.505-2.19-5.22 6.643 15.732 11.133 32.304 13.433 49.24-.256-1.934-.511-3.869-.767-5.84a197.413 197.413 0 011.716 25.844c0 5.62 2.445 11.498 6.424 15.476 3.796 3.796 10.038 6.644 15.477 6.425 5.657-.256 11.534-2.118 15.476-6.425 3.943-4.27 6.425-9.563 6.425-15.476 0-12.119-1.241-24.165-3.14-36.137a189.613 189.613 0 00-7.08-29.494c-6.608-20.331-16.098-39.969-28.545-57.417-6.607-9.308-13.798-18.25-21.755-26.5-7.957-8.25-16.681-15.55-25.77-22.522-17.047-13.104-36.137-22.996-56.286-30.406-20.696-7.628-42.853-11.607-64.864-12.447-2.555-.11-5.146-.146-7.701-.146-5.622 0-11.535 2.446-15.477 6.425-3.796 3.796-6.643 10.038-6.424 15.476.255 5.658 2.117 11.535 6.424 15.477 4.27 3.87 9.527 6.315 15.477 6.351h0z"/><path fill="#fff" d="M75.858 69.13c12.374 0 24.748.84 37.012 2.482-1.934-.256-3.869-.511-5.84-.767 18.725 2.555 37.122 6.972 54.935 13.323 4.964 1.752 9.892 3.687 14.747 5.731-1.752-.73-3.504-1.46-5.22-2.19a277.588 277.588 0 0148.365 26.464c4.27 2.956 8.468 5.986 12.593 9.162-1.46-1.132-2.957-2.3-4.417-3.431a276.464 276.464 0 0139.75 37.56 262.04 262.04 0 019.856 12.045c-1.131-1.46-2.3-2.956-3.431-4.416 11.206 14.527 20.988 30.15 29.092 46.649 2.3 4.709 4.49 9.49 6.534 14.309-.73-1.753-1.46-3.505-2.19-5.22a275.281 275.281 0 0116.389 53.657 266.565 266.565 0 012.664 16.025c-.255-1.935-.51-3.87-.766-5.84a278.947 278.947 0 012.482 37.012c0 5.621 2.446 11.498 6.424 15.477 3.797 3.796 10.038 6.643 15.477 6.424 5.658-.255 11.535-2.117 15.477-6.424 3.942-4.27 6.424-9.564 6.424-15.477-.036-30.661-4.709-61.688-14.199-90.853-9.162-28.106-22.34-55.117-39.495-79.208-8.98-12.63-18.798-24.749-29.566-35.882-10.841-11.242-22.704-21.317-35.078-30.807-23.508-18.032-49.862-31.903-77.64-42.087-28.69-10.512-59.205-16.133-89.611-17.301-3.578-.146-7.191-.22-10.805-.22-5.621 0-11.534 2.446-15.477 6.425-3.796 3.796-6.643 10.038-6.424 15.477.256 5.657 2.117 11.534 6.424 15.476 4.308 3.942 9.564 6.425 15.514 6.425h0z"/><g><path fill="#fff" transform="matrix(-.2314 -.13224 .1336 -.22903 42.234 80.358)" d="M-490.521-894.276h16.6v320.3h-16.6z"/><path fill="#fff" d="M123.305 1352.557h320.3v16.6h-320.3z" transform="matrix(.26722 0 0 .26447 -1.407 -15.728)"/><path fill="#fff" transform="matrix(-.2314 -.13224 .1336 -.22903 20.79 159.707)" d="M-574.621-581.676h185v16.6h-185z"/><path fill="#fff" transform="matrix(-.2314 -.13224 .1336 -.22903 122.405 59.136)" d="M-435.421-822.776h185v16.6h-185z"/><path fill="#fff" transform="matrix(-.1336 -.22903 .2314 -.13224 32.473 45.662)" d="M-855.285-480.883h16.6v185h-16.6z"/><path fill="#fff" transform="matrix(-.1336 -.22903 .2314 -.13224 69.694 109.467)" d="M-867.785-316.283h320.3v16.6h-320.3z"/><path fill="#fff" d="M136.006 1187.857h16.6v185h-16.6zM414.406 1187.857h16.6v185h-16.6z" transform="matrix(.26722 0 0 .26447 -1.407 -15.728)"/><path fill="#fff" transform="matrix(-.1336 -.22903 .2314 -.13224 32.474 173.18)" d="M-714.985-227.783h14.5v160.9h-14.5z"/><path fill="#fff" d="M453.005 1378.257c-9.6 16.7-31 22.4-47.7 12.8-16.7-9.6-22.4-31-12.8-47.7 9.6-16.7 31-22.4 47.7-12.8 16.8 9.7 22.5 31 12.8 47.7M174.405 1217.357c-9.6 16.7-31 22.4-47.7 12.8-16.7-9.6-22.4-31-12.8-47.7 9.6-16.7 31-22.4 47.7-12.8 16.7 9.7 22.4 31 12.8 47.7M114.005 1378.257c-9.6-16.7-3.9-38 12.8-47.7 16.7-9.6 38-3.9 47.7 12.8 9.6 16.7 3.9 38-12.8 47.7-16.8 9.6-38.1 3.9-47.7-12.8M392.606 1217.357c-9.6-16.7-3.9-38 12.8-47.7 16.7-9.6 38-3.9 47.7 12.8 9.6 16.7 3.9 38-12.8 47.7-16.7 9.6-38.1 3.9-47.7-12.8M283.505 1476.157c-19.3 0-34.9-15.6-34.9-34.9 0-19.3 15.6-34.9 34.9-34.9 19.3 0 34.9 15.6 34.9 34.9 0 19.2-15.6 34.9-34.9 34.9M283.505 1154.357c-19.3 0-34.9-15.6-34.9-34.9 0-19.3 15.6-34.9 34.9-34.9 19.3 0 34.9 15.6 34.9 34.9 0 19.3-15.6 34.9-34.9 34.9" transform="matrix(.26722 0 0 .26447 -1.407 -15.728)"/></g></g></g></svg>