<svg width="400" height="400" xmlns="http://www.w3.org/2000/svg" clip-rule="evenodd"><defs><style>.prefix__prefix__fil1{fill:#fff}</style></defs><path fill="none" id="prefix__canvas_background" d="M-1-1h402v402H-1z"/><g><path d="M-1-1h402v402H-1V-1z" id="prefix__prefix__canvas_background" fill="none"/><g id="prefix__svg_41"><g id="prefix__svg_1"><g id="prefix__prefix__svg_94"><path fill-rule="nonzero" fill="#fff" d="M254.69 84.961c19.46 7.422 36.237 18.892 50.328 33.06 26.842 26.99 43.618 64.774 43.618 105.931 0 7.422-.67 14.844-1.342 22.266 5.37 2.699 10.066 6.072 14.763 10.12h0c9.395 10.121 16.105 23.615 16.105 39.134 0 15.518-6.71 29.013-16.105 39.133h0c-10.065 10.121-24.157 16.194-38.92 16.194-11.408 0-22.145-3.374-30.868-9.446-25.5 20.241-57.71 32.386-92.605 32.386-34.894 0-67.104-12.145-91.933-32.386-8.723 6.072-19.46 9.446-30.868 9.446-15.434 0-28.855-6.073-38.92-16.194h0c-10.066-10.12-16.106-23.615-16.106-39.133 0-15.519 6.04-29.013 16.106-39.134h0c4.026-4.048 9.394-7.421 14.763-10.12a124.892 124.892 0 01-2.014-22.266c0-41.157 16.777-78.942 43.618-105.93 14.763-14.17 31.54-25.64 51-33.061-.67-1.35-.67-2.699-.67-3.374 0-15.518 6.71-29.687 16.104-39.133h0c10.065-10.12 24.157-16.193 38.92-16.193 15.434 0 28.855 6.072 38.921 16.193h0c10.066 9.446 16.105 23.615 16.105 39.133v3.374zm79.854 156.534c.671-6.073.671-11.47.671-17.543 0-37.784-14.762-71.52-39.59-96.484-12.08-12.145-26.843-22.266-43.619-29.013-2.684 8.097-7.382 15.519-13.42 21.591v.675c-10.067 9.446-23.488 16.193-38.92 16.193-14.765 0-28.857-6.747-38.922-16.193v-.675c-6.04-6.072-10.737-13.494-13.42-21.59-16.106 6.746-30.869 16.867-42.948 29.012-24.829 24.964-40.263 58.7-40.263 96.484 0 6.073.671 11.47 1.342 17.543 4.027-.675 7.382-1.35 11.408-1.35 15.434 0 28.855 6.073 38.92 16.193h0c10.066 10.121 16.106 23.615 16.106 39.134 0 14.169-5.369 26.989-14.092 37.11 22.815 17.542 51 27.663 81.867 27.663 30.868 0 59.723-10.121 82.54-27.664-8.725-10.12-14.093-22.94-14.093-37.11 0-15.518 6.04-29.012 16.105-39.133h0c10.066-10.12 23.487-16.193 38.92-16.193 3.356 0 7.382.675 11.408 1.35zm17.448 24.29c-7.382-7.422-17.448-12.145-28.855-12.145-11.408 0-22.145 4.723-29.526 12.144-7.382 7.422-12.08 18.218-12.08 29.688 0 11.47 4.698 22.266 12.08 29.687 7.381 7.422 18.118 12.145 29.526 12.145 11.407 0 21.473-4.723 28.855-12.145 8.052-7.421 12.75-18.217 12.75-29.687 0-11.47-4.698-22.266-12.75-29.688v.001zM229.19 51.899c-7.38-8.097-18.118-12.145-29.526-12.145-11.407 0-21.473 4.048-29.526 12.145-7.38 7.422-12.078 17.542-12.078 29.687 0 11.47 4.697 21.591 12.078 29.013 8.053 8.097 18.12 12.82 29.526 12.82 11.408 0 22.145-4.723 29.526-12.82 7.382-7.422 12.08-17.543 12.08-29.013 0-12.145-4.698-22.265-12.08-29.687zm-122.8 213.884c-7.382-7.421-18.12-12.144-29.527-12.144-11.408 0-22.144 4.723-29.526 12.144-7.38 7.422-12.079 18.218-12.079 29.688 0 11.47 4.698 22.266 12.08 29.687 7.38 7.422 18.117 12.145 29.525 12.145 11.408 0 22.145-4.723 29.526-12.145 7.382-7.421 12.08-18.217 12.08-29.687 0-11.47-4.698-22.266-12.08-29.688h.001z" id="prefix__prefix__svg_6" stroke="null"/><path class="prefix__prefix__fil1" d="M76.652 343.9c24.532 0 44.662-20.704 44.662-46.203 0-25.717-20.13-46.422-44.662-46.422-24.533 0-44.453 20.705-44.453 46.422 0 25.499 19.92 46.203 44.453 46.203zm19.92-70.395h-39.84v7.192h39.84v-7.192zm-16.356 56.229v-32.91l5.662 5.885 4.822-5.012-11.532-11.987-2.516-2.615-2.307 2.615-11.742 11.987 4.823 5.012 5.87-5.884v32.909h6.92z" id="prefix__prefix__svg_10" stroke="null" fill="none"/><path class="prefix__prefix__fil1" d="M199.985 128.567c24.532 0 44.662-20.704 44.662-46.203 0-25.717-20.13-46.421-44.662-46.421-24.533 0-44.453 20.704-44.453 46.421 0 25.5 19.92 46.203 44.453 46.203zm19.92-70.394h-39.84v7.192h39.84v-7.192zm-16.356 56.228V81.492l5.662 5.885 4.822-5.013-11.532-11.987-2.516-2.615-2.307 2.615-11.742 11.987 4.823 5.013 5.87-5.885v32.91h6.92v-.001z" id="prefix__prefix__svg_91" stroke="null"/><path class="prefix__prefix__fil1" d="M323.318 343.9c24.532 0 44.662-20.704 44.662-46.203 0-25.717-20.13-46.422-44.662-46.422-24.533 0-44.453 20.705-44.453 46.422 0 25.499 19.92 46.203 44.453 46.203zm19.92-70.395h-39.84v7.192h39.84v-7.192zm-16.356 56.229v-32.91l5.662 5.885 4.822-5.012-11.532-11.987-2.516-2.615-2.307 2.615-11.742 11.987 4.823 5.012 5.87-5.884v32.909h6.92z" id="prefix__prefix__svg_92" stroke="null"/></g></g><g stroke="null" id="prefix__svg_40"><g stroke="null" transform="matrix(.44968 0 0 .44968 -595.185 -597.223)" id="prefix__svg_6"><g id="prefix__svg_7"><g stroke="null" id="prefix__svg_8"><path stroke="null" id="prefix__svg_9" fill="#fff" transform="rotate(-150 130.337 159.778)" d="M-2049.911-625.113h16.6v320.3h-16.6z"/></g></g><g id="prefix__svg_10"><g stroke="null" id="prefix__svg_11"><path stroke="null" id="prefix__svg_12" fill="#fff" d="M1608.319 1899.157h320.3v16.6h-320.3z"/></g></g><g id="prefix__svg_13"><g stroke="null" id="prefix__svg_14"><path stroke="null" id="prefix__svg_15" fill="#fff" transform="rotate(-150 130.408 320.545)" d="M-2134.011-312.513h185v16.6h-185z"/></g></g><g id="prefix__svg_16"><g stroke="null" id="prefix__svg_17"><path stroke="null" id="prefix__svg_18" fill="#fff" transform="rotate(-150 269.598 79.459)" d="M-1994.811-553.613h185v16.6h-185z"/></g></g><g id="prefix__svg_19"><g stroke="null" id="prefix__svg_20"><path stroke="null" id="prefix__svg_21" fill="#fff" transform="rotate(-120 130.403 79.462)" d="M-2071.201 531.882h16.6v185h-16.6z"/></g></g><g id="prefix__svg_22"><g stroke="null" id="prefix__svg_23"><path stroke="null" id="prefix__svg_24" fill="#fff" transform="rotate(-120 269.693 159.881)" d="M-2083.701 696.482h320.3v16.6h-320.3z"/></g></g><g id="prefix__svg_25"><g stroke="null" id="prefix__svg_26"><path stroke="null" id="prefix__svg_27" fill="#fff" d="M1621.019 1734.457h16.6v185h-16.6z"/></g></g><g id="prefix__svg_28"><g stroke="null" id="prefix__svg_29"><path stroke="null" id="prefix__svg_30" fill="#fff" d="M1899.419 1734.457h16.6v185h-16.6z"/></g></g><g id="prefix__svg_31"><g stroke="null" id="prefix__svg_32"><path stroke="null" id="prefix__svg_33" fill="#fff" transform="rotate(-120 269.593 320.547)" d="M-1930.901 784.982h14.5v160.9h-14.5z"/></g></g><path id="prefix__svg_34" fill="#fff" d="M1938.019 1924.857c-9.6 16.7-31 22.4-47.7 12.8-16.7-9.6-22.4-31-12.8-47.7 9.6-16.7 31-22.4 47.7-12.8 16.8 9.7 22.5 31 12.8 47.7"/><path id="prefix__svg_35" fill="#fff" d="M1659.419 1763.957c-9.6 16.7-31 22.4-47.7 12.8-16.7-9.6-22.4-31-12.8-47.7 9.6-16.7 31-22.4 47.7-12.8 16.7 9.7 22.4 31 12.8 47.7"/><path id="prefix__svg_36" fill="#fff" d="M1599.019 1924.857c-9.6-16.7-3.9-38 12.8-47.7 16.7-9.6 38-3.9 47.7 12.8 9.6 16.7 3.9 38-12.8 47.7-16.8 9.6-38.1 3.9-47.7-12.8"/><path id="prefix__svg_37" fill="#fff" d="M1877.619 1763.957c-9.6-16.7-3.9-38 12.8-47.7 16.7-9.6 38-3.9 47.7 12.8 9.6 16.7 3.9 38-12.8 47.7-16.7 9.6-38.1 3.9-47.7-12.8"/><path id="prefix__svg_38" fill="#fff" d="M1768.519 2022.757c-19.3 0-34.9-15.6-34.9-34.9 0-19.3 15.6-34.9 34.9-34.9 19.3 0 34.9 15.6 34.9 34.9 0 19.2-15.6 34.9-34.9 34.9"/><path id="prefix__svg_39" fill="#fff" d="M1768.519 1700.957c-19.3 0-34.9-15.6-34.9-34.9 0-19.3 15.6-34.9 34.9-34.9 19.3 0 34.9 15.6 34.9 34.9 0 19.3-15.6 34.9-34.9 34.9"/></g></g></g></g></svg>